<?xml version="1.0" encoding="UTF-8" standalone="no"?>
<!-- Created with Inkscape (http://www.inkscape.org/) -->

<svg
   xmlns:dc="http://purl.org/dc/elements/1.1/"
   xmlns:cc="http://creativecommons.org/ns#"
   xmlns:rdf="http://www.w3.org/1999/02/22-rdf-syntax-ns#"
   xmlns:svg="http://www.w3.org/2000/svg"
   xmlns="http://www.w3.org/2000/svg"
   xmlns:sodipodi="http://sodipodi.sourceforge.net/DTD/sodipodi-0.dtd"
   xmlns:inkscape="http://www.inkscape.org/namespaces/inkscape"
   width="600"
   height="100"
   id="svg3067"
   version="1.1"
   inkscape:version="0.48.2 r9819"
   sodipodi:docname="tablemountain.svg"
   inkscape:export-filename="/Users/adrian/Projects/nodecpt.github.com/assets/masthead.png"
   inkscape:export-xdpi="90"
   inkscape:export-ydpi="90">
  <defs
     id="defs3069">
    <clipPath
       clipPathUnits="userSpaceOnUse"
       id="clipPath4398">
      <rect
         style="fill:none;stroke:#504616;stroke-width:0.1;stroke-miterlimit:4;stroke-opacity:1;stroke-dasharray:none;display:inline"
         id="rect4400"
         width="16"
         height="16"
         x="-32.442089"
         y="1185.7749" />
    </clipPath>
  </defs>
  <sodipodi:namedview
     id="base"
     pagecolor="#ffffff"
     bordercolor="#666666"
     borderopacity="1.0"
     inkscape:pageopacity="0.0"
     inkscape:pageshadow="2"
     inkscape:zoom="8"
     inkscape:cx="-24.172352"
     inkscape:cy="-157.97054"
     inkscape:document-units="px"
     inkscape:current-layer="layer1"
     showgrid="false"
     inkscape:window-width="1225"
     inkscape:window-height="716"
     inkscape:window-x="20"
     inkscape:window-y="20"
     inkscape:window-maximized="0" />
  <metadata
     id="metadata3072">
    <rdf:RDF>
      <cc:Work
         rdf:about="">
        <dc:format>image/svg+xml</dc:format>
        <dc:type
           rdf:resource="http://purl.org/dc/dcmitype/StillImage" />
        <dc:title></dc:title>
      </cc:Work>
    </rdf:RDF>
  </metadata>
  <g
     inkscape:label="Layer 1"
     inkscape:groupmode="layer"
     id="layer1"
     transform="translate(0,-952.36218)"
     style="display:inline">
    <g
       id="g4392"
       clip-path="url(#clipPath4398)">
      <rect
         y="1185.7749"
         x="-32.442089"
         height="16"
         width="16"
         id="rect4375"
         style="fill:#ff7660;fill-opacity:1;stroke:#504616;stroke-width:0.1;stroke-miterlimit:4;stroke-opacity:1;stroke-dasharray:none;display:inline" />
      <rect
         y="1195.0673"
         x="-32.667988"
         height="9.2972584"
         width="17.207794"
         id="rect4001"
         style="fill:#006680;fill-opacity:1" />
      <g
         id="g3995"
         transform="matrix(0.06110423,0,0,0.10100302,-34.983673,1189.8218)"
         style="fill:#280b0b;fill-opacity:1;stroke:#000000;stroke-width:0;stroke-linejoin:round;stroke-miterlimit:4;stroke-opacity:1;stroke-dasharray:none">
        <path
           sodipodi:nodetypes="cssssssssscssssssscssssscccssssssscsc"
           inkscape:connector-curvature="0"
           id="path3997"
           d="m 3.1756033,53.573937 c 2.1444367,-0.03281 9.3851847,-6.742351 12.1042437,-8.276563 2.214989,-1.249785 4.558533,-2.272344 5.207882,-2.272344 1.705169,0 11.466513,-3.726904 13.188426,-5.035368 0.803462,-0.610543 3.080722,-1.698282 5.060568,-2.417198 3.056054,-1.109688 3.988058,-1.913287 6.170847,-5.320616 3.027309,-4.72562 3.666619,-5.209786 9.169555,-6.944359 2.300512,-0.725137 6.103507,-2.408583 8.451092,-3.740989 2.347578,-1.332399 5.444362,-2.527163 6.88174,-2.655024 2.413296,-0.214679 2.789445,-0.563325 4.912607,-4.553444 l 2.29921,-4.3209607 3.523711,0.5046385 c 5.853097,0.8382457 12.240564,3.4146632 14.352937,5.7893342 1.623797,1.825429 2.472074,2.176334 5.26108,2.176334 1.828828,0 4.299448,0.485546 5.490268,1.07898 2.49767,1.244701 2.91827,0.882099 4.11448,-3.547152 0.42289,-1.565845 1.36258,-3.225956 2.0882,-3.689129 1.66174,-1.0607209 31.42496,-1.797995 72.58364,-1.797995 l 30.4912,0 0.21673,1.894118 c 0.35382,3.092322 1.98987,4.718263 4.24081,4.21461 1.24535,-0.278655 2.40709,-0.03137 3.19612,0.680299 0.68178,0.614944 2.00883,1.128917 2.94901,1.142176 0.94017,0.01326 1.88607,0.365034 2.102,0.78174 0.21592,0.416706 1.02676,0.757647 1.80184,0.757647 8.72545,5.43396 3.05041,10.553652 16.87142,9.022912 11.76312,4.832178 18.46771,1.76017 28.65162,3.933371 13.18838,3.157616 14.6187,3.072994 17.98882,-1.064275 3.99676,-4.906569 7.1555,-7.495722 8.80205,-7.21487 0.86628,0.147764 2.4276,1.810717 3.87294,4.125049 2.50698,4.014257 3.07117,4.388671 14.12014,9.370573 2.09627,0.945187 5.95411,3.093792 8.57297,4.774677 2.61887,1.680879 5.62035,3.319124 6.66996,3.640556 1.04961,0.321424 3.05179,1.104006 4.44931,1.739073 1.39751,0.635067 3.70769,1.169633 5.13369,1.187923 1.42603,0.01826 4.57043,0.731364 6.98757,1.584619 2.41714,0.853255 23.12918,-0.200958 10.35452,4.731204"
           style="fill:#280b0b;fill-opacity:1;stroke:#000000;stroke-width:0;stroke-linejoin:round;stroke-miterlimit:4;stroke-opacity:1;stroke-dasharray:none" />
      </g>
    </g>
    <g
       id="g3071"
       transform="matrix(1.6818843,0,0,2.2079231,-8.6073769,935.34355)"
       style="fill:#502d16;fill-opacity:1;stroke:#757575;stroke-width:0.57082456;stroke-linejoin:round;stroke-miterlimit:4;stroke-opacity:0.46666667;stroke-dasharray:none">
      <path
         sodipodi:nodetypes="cssssssssscssssssscssssscccssssssscsc"
         inkscape:connector-curvature="0"
         id="path3117"
         d="m 3.1756033,53.573937 c 2.1444367,-0.03281 9.3851847,-6.742351 12.1042437,-8.276563 2.214989,-1.249785 4.558533,-2.272344 5.207882,-2.272344 1.705169,0 11.466513,-3.726904 13.188426,-5.035368 0.803462,-0.610543 3.080722,-1.698282 5.060568,-2.417198 3.056054,-1.109688 3.988058,-1.913287 6.170847,-5.320616 3.027309,-4.72562 3.666619,-5.209786 9.169555,-6.944359 2.300512,-0.725137 6.103507,-2.408583 8.451092,-3.740989 2.347578,-1.332399 5.444362,-2.527163 6.88174,-2.655024 2.413296,-0.214679 2.789445,-0.563325 4.912607,-4.553444 l 2.29921,-4.3209607 3.523711,0.5046385 c 5.853097,0.8382457 12.240564,3.4146632 14.352937,5.7893342 1.623797,1.825429 2.472074,2.176334 5.26108,2.176334 1.828828,0 4.299448,0.485546 5.490268,1.07898 2.49767,1.244701 2.91827,0.882099 4.11448,-3.547152 0.42289,-1.565845 1.36258,-3.225956 2.0882,-3.689129 1.66174,-1.0607209 31.42496,-1.797995 72.58364,-1.797995 l 30.4912,0 0.21673,1.894118 c 0.35382,3.092322 1.98987,4.718263 4.24081,4.21461 1.24535,-0.278655 2.40709,-0.03137 3.19612,0.680299 0.68178,0.614944 2.00883,1.128917 2.94901,1.142176 0.94017,0.01326 1.88607,0.365034 2.102,0.78174 0.21592,0.416706 1.02676,0.757647 1.80184,0.757647 8.72545,5.43396 3.05041,10.553652 16.87142,9.022912 11.76312,4.832178 18.46771,1.76017 28.65162,3.933371 13.18838,3.157616 14.6187,3.072994 17.98882,-1.064275 3.99676,-4.906569 7.1555,-7.495722 8.80205,-7.21487 0.86628,0.147764 2.4276,1.810717 3.87294,4.125049 2.50698,4.014257 3.07117,4.388671 14.12014,9.370573 2.09627,0.945187 5.95411,3.093792 8.57297,4.774677 2.61887,1.680879 5.62035,3.319124 6.66996,3.640556 1.04961,0.321424 3.05179,1.104006 4.44931,1.739073 1.39751,0.635067 3.70769,1.169633 5.13369,1.187923 1.42603,0.01826 4.57043,0.731364 6.98757,1.584619 2.41714,0.853255 8.95701,4.290079 10.35452,4.731204"
         style="fill:#502d16;fill-opacity:1;stroke:#757575;stroke-width:0.57082456;stroke-linejoin:round;stroke-miterlimit:4;stroke-opacity:0.46666667;stroke-dasharray:none" />
    </g>
    <text
       xml:space="preserve"
       style="font-size:39.05896378px;font-style:normal;font-variant:normal;font-weight:normal;font-stretch:normal;line-height:125%;letter-spacing:0px;word-spacing:0px;fill:#33342d;fill-opacity:1;stroke:none;font-family:Droid Sans;-inkscape-font-specification:Droid Sans"
       x="90.82811"
       y="913.18463"
       id="text3119"
       sodipodi:linespacing="125%"><tspan
         sodipodi:role="line"
         id="tspan3121"
         x="90.82811"
         y="913.18463"
         dx="0"
         style="letter-spacing:-1.95294833px;fill:#33342d;fill-opacity:1">NODE CAPE TOWN</tspan></text>
    <path
       style="fill:none;stroke:#000000;stroke-width:1px;stroke-linecap:butt;stroke-linejoin:miter;stroke-opacity:1"
       d="m -32.5,60.5 -42.75,37 4.25,-19.25 21.75,-46 4.001637,6.749029 z"
       id="path3858"
       inkscape:connector-curvature="0"
       transform="translate(0,952.36218)"
       sodipodi:nodetypes="cccccc" />
  </g>
  <g
     inkscape:groupmode="layer"
     id="layer2"
     inkscape:label="Layer"
     style="display:inline" />
</svg>
